<svg xmlns="http://www.w3.org/2000/svg" viewBox="0 0 694 221"><path d="M393.1 60.3a5.7 5.7 0 0 0 1.3-.1 15.6 15.6 0 0 0 13.5-12.8c1-6.6-3.2-12.1-9.6-12.8-.4 0-.9-.1-1.3-.1a5.7 5.7 0 0 0-1.3.1 15.6 15.6 0 0 0-13.5 12.8 11.55 11.55 0 0 0 2.3 9 11 11 0 0 0 8.6 3.9z"/><path d="M694.1 167.7c0-17.6-8.6-33.7-16.2-47.9-6.5-12.1-12.3-23.1-10.8-31.3 1.1-5.9 5.3-9.3 11.8-9.7.2 0 .4-.1.6-.1a4.05 4.05 0 0 0 .9-.5 1.56 1.56 0 0 0 .6-.8c0-.1.1-.1.1-.2l3.2-8.3a2.6 2.6 0 0 0 .1-2.1 3.54 3.54 0 0 0-1-1.2 8.81 8.81 0 0 0-2.9-1.3 20.65 20.65 0 0 0-6.2-1c-9.4 0-20.9 3.1-30.9 28-.4 1-19.7 51-20.3 52.6-2.4 5.9-7.5 13-18.3 13-4.7 0-8.5-1.8-10.6-4.8a16.18 16.18 0 0 1-1-1.8 12.44 12.44 0 0 1-.6-7c.2-.9.4-1.9.7-2.9a53.42 53.42 0 0 1 2-5.5C602.7 116 629 48.7 637.1 28c1-2.6-.4-4.7-3.2-4.7h-9.3a6.41 6.41 0 0 0-3 .8 8 8 0 0 0-3.8 3.9c-3.6 9.1-8.7 22.3-14.1 36.2-4.2 10.7-8.5 21.8-12.5 31.9a45.67 45.67 0 0 0-4.1-5.7 48.06 48.06 0 0 0-5.1-5 44.54 44.54 0 0 0-28.6-9.9c-13.4 0-26.3 5.4-36.4 14.2-.4.3-.7.7-1.1 1s-.5.5-.8.7a59.79 59.79 0 0 0-15 22.4c0 .1-.1.2-.1.4-.4 1.1-.7 2.2-1.1 3.4a45.56 45.56 0 0 0-1.4 6.4q-.45 3-.6 6a46.37 46.37 0 0 0 2.5 16.7 22.36 22.36 0 0 1-3.4 4.2 22.8 22.8 0 0 1-13.7 6.2h-1.4a16.88 16.88 0 0 1-5.6-1 10.94 10.94 0 0 1-5.1-3.8c-2.3-3.3-2.3-8.1-.2-13.6.5-1.4 3.7-9.9 6.6-17.5 2.2-5.9 4.2-11.4 4.6-12.5.2-.6.6-1.5.9-2.6a12 12 0 0 0-.6-8 14.05 14.05 0 0 0-2.1-3.1 15.46 15.46 0 0 0-5.7-3.5 22.5 22.5 0 0 0-2.4-.8 45.07 45.07 0 0 1-4.6-1.7c-.1 0-.1-.1-.2-.1-2.8-1.2-16.3-7.5-16.3-19.5v-1.5a4.8 4.8 0 0 0-1.6-3.5c-.1 0-.1-.1-.2-.1h-.1c-.1-.1-.2-.1-.3-.2h-.2c-.1 0-.1-.1-.2-.1a4.15 4.15 0 0 0-1.6-.3h-9.2a7.8 7.8 0 0 0-5.4 2.5 6.36 6.36 0 0 0-1.4 2.2c-2 5.1-4.4 11.2-6.9 17.7-8.8 22.6-19.3 49.7-22.3 57.4l-.3.9c-2.4 5.9-7.5 13-18.4 13-4.7 0-8.6-1.8-10.6-4.8a11.31 11.31 0 0 1-1.7-6.8 22.63 22.63 0 0 1 1.5-6.8c1.9-5 6-15.4 10.3-26.4 4.1-10.5 8.4-21.7 11.4-29.3 1-2.6-.4-4.7-3.2-4.7h-10.2a7.47 7.47 0 0 0-2 .3h-.2a11.83 11.83 0 0 0-5.7 3.7 55 55 0 0 1-17.8 13.9 64.1 64.1 0 0 1-21.1 6.4 39 39 0 0 0-3.9-7.6c-.1-.1-.1-.2-.2-.3a43.54 43.54 0 0 0-3.2-4.3c-8.3-9.6-20.2-14.9-33.7-14.9a53.15 53.15 0 0 0-20.8 4.4c3.3-8.5 6.6-17.1 9.7-25.2 3.8-9.9 7.4-19.1 10.3-26.7a3.71 3.71 0 0 0 0-3.1 3.24 3.24 0 0 0-3.1-1.6h-9.4a7.37 7.37 0 0 0-3.4 1 7 7 0 0 0-3 2.9c-.1.3-.3.5-.4.8-11.9 30.3-30.9 79.4-39.9 102.9-2.5 6.4-4.2 11-4.9 12.7-2.4 5.9-7.5 13-18.3 13a21.3 21.3 0 0 1-2.7-.2c-3.4-.6-6.3-2.1-7.9-4.6-.3-.5-.6-1-.9-1.6a12.17 12.17 0 0 1-.7-7.2 32.35 32.35 0 0 1 1.7-5.5c1.1-3 2.2-5.9 2.2-5.9s4-10.2 9.7-25c.6-1.6 1.3-3.3 2-5.1a1.42 1.42 0 0 0 .2-.6c8.8-22.6 20.6-53.1 29.1-75.1 3.4-8.9 6.3-16.4 8.3-21.4 1-2.6-.4-4.7-3.2-4.7h-9.3a7.8 7.8 0 0 0-6.8 4.7c-1.1 2.8-10.9 28.2-21.9 56.6-14.2 36.6-30.3 78.2-32 82.7-.4.9-.8 1.8-1.3 2.7a19.7 19.7 0 0 1-7 7.7 20.07 20.07 0 0 1-10.1 2.7c-3.8 0-7-1.1-9.2-3.2-.5-.5-1-1-1.5-1.6a11.63 11.63 0 0 1-1.5-8.6v-.1c.5-2.9 4.4-13.1 4.4-13.3 2.5-6.4 5.4-14 8.5-22.1 10.3-26.5 22.9-59.3 31-80a5.66 5.66 0 0 0 .3-1.8 3.21 3.21 0 0 0-1-2.1 3.74 3.74 0 0 0-2.5-.8h-9.3a7.14 7.14 0 0 0-3.1.8 7.63 7.63 0 0 0-3.3 3.1c-.1.2-.3.5-.4.7-2.4 6.1-5 12.9-7.8 20.1-3 7.8-6.2 16.1-9.5 24.4-12.8 33-25.5 66.1-27.6 71.4a31.45 31.45 0 0 1-2.7 5.1c-3 4.3-7.8 7.9-15.7 7.9a15.28 15.28 0 0 1-7.6-1.9 9.25 9.25 0 0 1-3-2.9 11.51 11.51 0 0 1-1.2-2.5 12.71 12.71 0 0 1-.3-6.2 84.58 84.58 0 0 1 3.8-11.2.35.35 0 0 1 .1-.2L118 82.9c1-2.6-.4-4.7-3.2-4.7h-9.3a7.85 7.85 0 0 0-4.9 2 .1.1 0 0 0-.1.1 5.89 5.89 0 0 0-1.7 2.5l-1.9 5-3 7.8-1.8-2.7a24.33 24.33 0 0 0-2-2.5 42 42 0 0 0-10.5-8.8 44.76 44.76 0 0 0-23.1-6.1c-20.9 0-40.7 13.2-50.4 31.8a54.08 54.08 0 0 0-5.5 16.6c-2.1 13.6 1.4 26.5 9.8 36.2a40.25 40.25 0 0 0 8.8 7.7c.6.4 1.3.8 2 1.2a45.21 45.21 0 0 0 22.9 6c13.5 0 26.6-5.6 36.8-14.5a17.39 17.39 0 0 0 1.1 1.8c.2.3.5.7.7 1 0 .1.1.1.1.2.2.3.5.6.7.9a2.65 2.65 0 0 1 .5.6c.1.2.3.3.5.5a6.47 6.47 0 0 1 .8.9l.3.3c.4.3.7.7 1.1 1l.1.1a30.51 30.51 0 0 0 12.7 6.4c.1 0 .2.1.3.1l1.5.3c.2 0 .4.1.7.1s.8.1 1.3.2.7.1 1.1.1.6.1 1 .1c.7 0 1.4.1 2.2.1a37.29 37.29 0 0 0 14.6-2.9 27.3 27.3 0 0 0 4.8-2.5 13 13 0 0 0 1.5-1 35.78 35.78 0 0 0 5.6-4.7 20.89 20.89 0 0 0 2 2.2 29.88 29.88 0 0 0 17.9 8.5c.2 0 .5.1.7.1h.6c.4 0 .8.1 1.2.1h1.8a36.13 36.13 0 0 0 26.4-10.9 29.31 29.31 0 0 0 9.7 7.7 32.71 32.71 0 0 0 14.4 3.2 39.67 39.67 0 0 0 7.8-.8c10.9-2.2 19.9-9.1 25.4-19.5.3.5.6.9.9 1.4l1.2 1.8c.6.8 1.2 1.5 1.8 2.3 8.3 9.6 20.2 14.9 33.7 14.9 18.4 0 36-10.3 46.5-25.3a55.3 55.3 0 0 0 9.4-23q.45-3.15.6-6.3a45.07 45.07 0 0 0 5.3-.9 76.68 76.68 0 0 0 21.3-7.4c-.2.5-.4 1.1-.6 1.6-3 7.9-5.7 14.7-7.1 18.4-4.4 11.1-3.7 21.9 2 30.3a27.58 27.58 0 0 0 7.9 7.7 32.38 32.38 0 0 0 17.6 5c15.9 0 29-9.1 35.2-24.5.8-2 2.4-6.2 4.5-11.7 4.4-11.3 11-28.3 17-43.7.5-1.4 1.1-2.8 1.6-4.1a49.79 49.79 0 0 0 19 14.3c.4.2.7.3 1.1.5.8.3 1.6.6 2.3.9-3.4 9.2-8.8 23.8-9.5 25.4-2.7 6.9-3.5 13.6-2.3 19.7a28.93 28.93 0 0 0 4.3 10.6 29.38 29.38 0 0 0 23.5 12.7c.7 0 1.3.1 2 .1 1.1 0 2.2-.1 3.3-.2a1.7 1.7 0 0 0 .7-.1h.3a39.7 39.7 0 0 0 13.1-3.9 41.49 41.49 0 0 0 11.2-8.2 43.13 43.13 0 0 0 23.5 11.7 49.32 49.32 0 0 0 7.8.6 54.38 54.38 0 0 0 35-13 15.37 15.37 0 0 0 1.9-1.7c.4.7.8 1.4 1.2 2a29 29 0 0 0 14.4 10.9 6.89 6.89 0 0 1 .8.3c.3.1.7.2 1 .3l1.1.3c.3.1.6.1.9.2a4.25 4.25 0 0 0 1.1.2c.3.1.6.1.9.2a4.1 4.1 0 0 0 1.1.1c.4 0 .8.1 1.2.1s.6.1.9.1c.7 0 1.4.1 2.2.1 15.9 0 29-9.1 35.2-24.5.3-.9 6.1-15.4 10.8-27.4 1.4-3.6 2.7-7 3.7-9.7.5 1.1 1.1 2.3 1.6 3.4q2.85 5.7 6 11.7c1.7 3.2 3.5 6.5 5.1 9.8 4.9 9.8 9 19.8 9 29.6 0 28.9-19.6 34-25.6 34.9a9 9 0 0 0-7.6 7.5 8.16 8.16 0 0 0 0 2.7 1.88 1.88 0 0 0 .2.8 9.07 9.07 0 0 0 8.7 6.9h1.4a49.94 49.94 0 0 0 14.4-4.5c13.9-7.8 26.4-23 26.4-48.9zm-115.2-43.9a40.17 40.17 0 0 1-19 28.1.76.76 0 0 1-.4.2.1.1 0 0 0-.1.1 34 34 0 0 1-17 4.7 26.25 26.25 0 0 1-8-1.2 23.77 23.77 0 0 1-11.2-7.4 25.19 25.19 0 0 1-5.4-12.6v-.1a30.24 30.24 0 0 1 .1-9 37.25 37.25 0 0 1 4.5-13 41.33 41.33 0 0 1 12.1-13.5 35.12 35.12 0 0 1 19.9-6.6 25 25 0 0 1 12.9 3.3 24.68 24.68 0 0 1 6.3 5.3 18.5 18.5 0 0 1 2.3 3.4 27.31 27.31 0 0 1 3.4 13.7 24.53 24.53 0 0 1-.4 4.6zM271.4 156a22.71 22.71 0 0 1-12.2-7.8c-4.7-5.7-6.6-13.4-5.4-21.7v-.1a30.61 30.61 0 0 1 1.3-5.4c.7-1.8 1.4-3.7 2.2-5.6.1-.3.3-.5.4-.8.3-.5.5-1 .8-1.5.1-.2.2-.3.3-.5a42.36 42.36 0 0 1 8-9.8c6.6-5.8 14.9-9.4 23.5-9.4a27.05 27.05 0 0 1 10.8 2.2 23 23 0 0 1 8.4 6.4c4.7 5.7 6.6 13.4 5.4 21.8-2.7 18.2-19.1 33.1-36.6 33.1a26.11 26.11 0 0 1-6.9-.9zm-226.3.9c-7.9 0-14.7-3.1-19.3-8.6a20.28 20.28 0 0 1-1.3-1.8c-3.8-5.5-5.2-12.5-4.1-20 2.7-18.2 19.2-33.1 36.8-33.1 7.9 0 14.7 3.1 19.3 8.6 4.7 5.7 6.7 13.4 5.4 21.8a31.48 31.48 0 0 1-.9 4.2c-4.4 16.2-19.7 28.9-35.9 28.9z"/></svg>