<svg xmlns="http://www.w3.org/2000/svg" viewBox="0 0 1853.4 756.6"><path d="M625.8 733.9h35.7v21.3h-58.9v-91.7h57.9v20.7h-34.7v13.4h32.4v20.7h-32.4zm145.4-49.8h23.3v71.1H817v-71.1h23.2v-20.6h-69zm-44.5 14.5c-12.1-2.8-15-4.7-15-8.8 0-3.2 2.9-6.1 8.7-6.1 7.7 0 16.4 3.1 24.4 8.9l12.1-17.7c-9.5-7.9-21-12-35.8-12-20.9 0-33.7 12.2-33.7 29 0 19.1 14.3 24.3 32.8 28.7 11.8 2.8 14.7 5.2 14.7 8.9 0 3.9-3.5 6.2-10 6.2-10.1 0-19.7-3.8-28.2-10.9l-13.4 16.7c10.7 10 25.4 15 40.8 15 21.1 0 35.2-11 35.2-29.5-.2-16.9-12.6-23.9-32.6-28.4zm151.5 8.7h6.1c8.3 0 12-6.7 12-13.3 0-6.3-3.7-13.1-12-13.1h-6.1zm-6.6 38.8c0-5.7 4.7-10.4 10.4-10.4 5.8 0 10.4 4.7 10.4 10.4s-4.7 10.4-10.4 10.4-10.4-4.7-10.4-10.4l12.2-82.5c19.7 0 30 15.2 30 30.3.1 8.5-3 16.6-8.5 22.3-5.4 5.5-12.9 8.5-21.5 8.5h-23.1v-61h23.1m86.3-.2v18.9h13v72.7h22.2v-91.7zm132.2 64.8c0 4.6-1 8.8-2.9 12.8s-4.3 7-7.1 9.2-6.3 3.7-10.5 4.8c-4.2 1-8.6 1.5-13.4 1.5-8.9 0-15.7-1.1-20.4-3.4s-8.3-5.6-10.7-10.1c-2.4-4.4-3.7-9.4-3.7-14.8 0-5.3 1.2-9.9 3.4-13.6 2.3-3.7 5.8-6.6 10.6-8.6-3.7-2.1-6.3-4.5-8-7.1-2.3-3.6-3.4-7.7-3.4-12.3 0-7.6 3.3-13.8 9.9-18.7 5.2-3.7 12-5.6 20.4-5.6 11.2 0 19.5 2.3 24.9 7s8.1 10.5 8.1 17.5c0 4.1-1.1 7.9-3.2 11.5-1.6 2.7-4.1 5.2-7.6 7.7 4.6 2.4 7.9 5.5 10.2 9.4 2.3 3.8 3.4 8.1 3.4 12.8zm-43.9-40.2c0 5.2 4.2 9.5 9.5 9.5s9.5-4.3 9.5-9.5-4.2-9.5-9.5-9.5-9.5 4.3-9.5 9.5zm20.6 39.1c0-6.3-5-11.4-11.1-11.4s-11.1 5.1-11.1 11.4 5 11.4 11.1 11.4 11.1-5.1 11.1-11.4zm115.2-2.2c0 19.4-13.5 31.5-35.2 31.5-21.6 0-35-12.1-35-31.5 0-6.5 2.2-13.9 5.9-19.9l25.9-42.2h25.5l-19.3 31.7c9.6-.3 17.6 2.5 23.4 8.1 5.8 5.5 8.8 13.2 8.8 22.3zm-22.7-.3c0-6.5-5.6-11.9-12.5-11.9s-12.5 5.3-12.5 11.9 5.6 11.9 12.5 11.9 12.5-5.3 12.5-11.9zm111-30.8c-.1 7.5-2 13.6-6.3 20.4l-25.8 40.9h-25.5l20.1-31h-.1c-9.9.3-18.2-2.5-24.1-8.2-5.6-5.4-8.5-13.1-8.5-22.2 0-19.5 13.5-31.6 35.2-31.6 21.5.1 35 12.2 35 31.7zm-22.6.2c0-6.5-5.6-11.9-12.5-11.9s-12.5 5.3-12.5 11.9 5.6 11.9 12.5 11.9c6.9-.1 12.5-5.4 12.5-11.9zM807.6 405.4c0-3-3.3-6.6-7-3.9-9.1 5.7-29.1 16.4-57.8 19.2l-104.7 11.8-16.6-121.1c30.9-4.1 62.1-7.8 81.6-9.7 21.6-2.2 35.7.8 43.9 3.2 5.8 2.1 8.5-1.5 8.1-5.3l-8.3-99c-.7-5.4-4.4-5.4-8.2-3.2-7.1 4.2-18.2 7.6-45.4 10.3-25.8 2.6-55.7 6-84.6 9.7l-14-102.4c12.5-2 54.4-9.4 105.4-14.7 37.3-4 59.1.5 66.7 2.8 4.6 1.7 6.6-1.4 6.5-4.2l-5.4-94.1c-106.8 7.4-200 21.1-297 38.5-5.6 1-6.5 4.8-4.1 8.8 9.5 15.7 13.1 37.3 17.2 65.4l50.7 345.1c4.8 27.7 7.3 49.3 4.9 68.2-1.1 5.6 3.4 7.4 7.7 6.7 85.2-14.7 180.3-26.6 266.8-31.2zm56.6 99.2c41.4-1.6 76.5-2.1 119.5-1.2 4 .1 4.3-3 3.3-5.9-6.4-16.9-7.6-49.4-7.4-71.4l.5-355.7c.9-22.9.3-37.1 8.2-62.9.6-2.1 1.3-6.9-4.6-7.1-36.9-1-88.5-.1-119.3 1-5.6.2-5 4.4-4.3 6.4 6.7 21.5 8.7 43.9 9.1 65.8l.5 352.7c-.2 25.2-.1 51-8.3 72-1.8 3.6-.7 6.4 2.8 6.3zm596.5-371.4c6.8-28.7 9.5-45.2 22.3-63 2.7-2.9 2-6.1-1.3-6.8-31.9-7-76.8-16.4-106.5-21.7-5.1-.8-6.5 2-5.8 5.3 3.2 18.1 1.8 35.8-5.7 68.7l-38.8 213.8-97.1-310.9c-28.6-3.8-74.3-8.8-112.6-11.9-5.5-.4-7.9 2.9-6.7 7.3 5.6 22.1 1.9 47.3 0 65.1l-40.9 355.2c-2.2 17.9-6.3 45.5-15.9 64.7-.6 1.1-2.5 6.6 3 6.9 29.2 1.8 72.2 5.5 106.5 9.6 3.4.4 5.8-.8 4.6-5.4-6.3-21.2-3.1-49-1-67.3l26-224.4c.9 2.7 81.9 265.7 97.7 314.6 26.7 4.7 55.8 10.6 93.7 18.6 5.7 1.2 7.1-3.4 6.5-6.3-2.9-20.8-1.9-40 1.9-59.7-.1 0 70.2-352.5 70.1-352.4zm285.6 412.4c-20.9 1.4-49.8-3.5-69.6-10.3-44.9-14.7-60.2-19.5-87.9-28.2l264.7-236.4-1.7-91.3c-116.7-45.3-192.6-68.4-271.1-91.1l-28.3 93.3c-1.1 3.3.8 6.9 5.9 6.7 20.6-.8 53.5 7.4 70.5 12.5 20 6 95.4 30.3 111.2 36.1l-281.1 253.3 1.5 80.3c81.1 20.5 168.9 47.6 244.7 76.8l47-93c1.8-3.8.9-9-5.8-8.7zm-1258.7-4.9c-12.4-17.8-20.9-41-26.4-65.6l-96.6-335.4c-5-20.1-8.8-43.6-6.8-65.4.6-2.9-2.7-5-5.1-4.5-27.5 6.6-79.8 20.4-114 30.3-3.7 1.1-5.7 3.9-3.4 8.1 9.1 14.8 17.9 37 23.8 61.5l32.5 109.5c-30.9 7.7-88.4 24.8-120.2 34.5l-34.6-105.4c-9.1-25-12.2-42-12.7-63.6 0 0 .7-8.1-6.3-5.9-32.9 11-80 29.2-114.4 42.4-4.3 1.6-4.4 5.3-1.2 9 14.6 18 23.4 37.7 30.6 59.4l107.8 320.6c8 21.8 15 42.7 14.4 66.4-.1 2.1.8 7.1 6.2 5 31.8-11.3 77.5-27.5 111.7-38 3.2-1 4.2-4.6 1.4-7.5-12-14.7-22.9-39.2-28.3-55.4l-45-137c48.4-14.5 72-21.4 117.6-33.6l38.7 130.5c8.2 33.5 9.9 51.2 8.1 70.2-.3 2.5 2 5.8 5.8 4.8 32.7-8.9 73.5-18.8 113.9-27.3 4.7-1.1 4.1-5.5 2.5-7.6z"/></svg>