<svg xmlns="http://www.w3.org/2000/svg" viewBox="0 0 759.7 237.2"><path d="M314.6 89.6c9.4-8.7 21.4-11 26.9-5.1s2.3 17.7-7 26.5c-9.4 8.7-21.4 11-26.9 5.1-5.5-6-2.3-17.8 7-26.5"/><path d="M314.6 89.6c9.4-8.7 21.4-11 26.9-5.1s2.3 17.7-7 26.5c-9.4 8.7-21.4 11-26.9 5.1-5.5-6-2.3-17.8 7-26.5"/><path d="M562 139.4c-4.4-5.1-12.1-.3-17.2 1.8-20.6 12.4-39.4 29.4-56.4 48.4-9 10.5-18.4 20.8-22.8 33.4-.3 2 1 4.6 2.4 5.6 5.4 1.6 9.9-1.3 14.6-3 27.4-13.1 52.3-40 71.3-64.8 3.9-6.5 11.9-14.8 8.1-21.4M84.7 222.5c-14.6-5.6-29.3-10.9-45.3-13.1-10.6-1-22.9-1.7-30.9 5.7-1.6 1.7-1.7 3.2-1 4.8 3.4 6.6 11 6.7 17.3 8.1 20.5 2.7 41.1-.4 59.9-5.5zM350.3 11.9l-1.9-2.2c-8.3-4.8-17.6.4-24.9 4.3-38.5 22.8-76.6 75.6-100.8 111.4 6.1-1 29.6-8.8 45.7-18.9 28.4-15.8 64.8-50.4 80-80.1 1.7-4.4 4.4-9.5 1.9-14.5zM236.7 203.5c-28.2 22.4-60.8 35.4-98.2 31.5-12.6-2-24.9-4.7-37-8.1-25.7 7.3-55.8 12.2-83.7 6.2-7-2-16.1-5.6-17.7-13.9-.6-7.5 6.1-13.7 12.1-16.7 32.5-15.8 72.9-3.4 104.5 6.4 12.6-9.2 23.4-21.5 33.1-33.4l20.5-25.4c3.2-4.7 10.7-14.5 10.7-14.5-33.3-1.7-69.7-5.5-89.9-34.4-9.8-15.7-8.6-37.8 1-53.2 20.3-29.7 53.8-38.6 87.7-40.6 21.1-.6 40.7 3.6 59 10.2 0 0-.5 3.4-.8 5-26.6-6.7-58.9-8.7-85.4.2-22 6.4-47.8 26.1-50.2 50.9-2.4 16.5 6.1 31.8 20.5 40.6 18.1 11.1 39.8 13.4 62.2 14.1 28-36.9 68.6-85.7 107.1-110.7C307.9 8.6 324-.7 343.4 0c4.7.2 10.5 2.2 13.8 7.4 6.3 9.3.9 21-3.6 29.4-19.8 34.5-60.8 68.6-94.1 84-13.7 5.8-27.9 10.2-42.5 13.7-16.5 25.2-28.8 42.7-52.9 60.5-10.5 7.7-21.9 13.9-33.9 18.4 22.4 9.5 54.6 9.6 76.6-1.2 18.1-8.5 35.3-22.1 48.8-39l34-43h35.3l-73 92.8c-1.3 1.7-1.6 3.2-.9 4.5 2.7 5.1 11.9 0 11.9 0s9.8-3.8 45.5-35.8c11.3-10.2 21.4-20.3 31-32l24-30h33.2c-8 10.3-15.1 20.1-22.2 29.9 17-13.9 34-27.8 55-31.9 8-1.1 15.6 1.4 20.1 8.1 5.8 9.3 2.1 21.5-3.4 29.8l-7.1 8.9-41.4 48.1c-1.2 1.5-1.1 2.9.1 4 3 2.1 7.3-1.4 10.4-2.4 15.5-7.4 28.1-17 41.4-29.5 3.7-4.1 7.2-10.9 10.7-15.2 21.2-26.7 49.9-45 81.5-51.2 8.7-1.2 19.5-2.6 26 4.3 1.9 2.4 2.4 5.4 2.2 8.5l5-5.8 41-52.2 39.4-50.9H689l-97.8 126.6-49.8 64.2c-.5 1.1-1 2.5-.5 3.6 1.3 2.9 6.7 1.3 9.5.7 20.9-6.4 38.8-21.5 53.7-39.3l53.2-67.6h-20.8l7.5-8.9h20.5s60.5-78.3 61.6-79.4h33.7L699.2 111l49.9-.1-8 9.4H692l-80.1 102.3c-1.2 1.6-1.2 3.1-.9 4.1 1 2.1 2.2 2.7 4.9 2.6 10.8-.1 20-7.4 29.6-15 10.7-8.4 28.1-25.4 28.1-25.4l5.4 5.6c-17.5 15.7-34.6 34.4-53.1 40.5-5.5 2.1-17.1 4.7-25.9-.4-8.6-5.1-9.8-14.1-3.6-26.4l-.7.1c-18.6 14.3-36.7 31.8-62.1 27.7-4.9-.9-9.5-5-11.7-9.6-2.1-5-2.3-11.5-.8-16.8-4.8 3.2-9.6 7.7-14.6 11.1-14.3 10-32 22.4-50.3 14.4-7.5-3.9-10.1-13.2-9.9-21.4.2-2 .5-4.2.8-6-13.7 11.2-27.4 20.5-43 27-6.5 2.4-22.7 5.8-30.7-2.3-4-4.8-4.8-9-3.2-16.6 2.2-9.4 22.6-30.5 22.6-30.5l39.6-44.6s1.8-2 .1-4.3c-2-2.8-6.2-.4-8.7.5-18.8 7.9-40.2 25.2-64.8 49.8-14.8 13.7-41.8 47.5-41.8 47.5h-33.6l25.5-32.4c-.8-1-2 .5-2 .5s-25.7 25.5-42.8 32.5l-.3.1c-6.5 2.4-22.7 5.8-30.8-2.3-4-4.8-4.8-9-3.2-16.6 1.8-8.4 6.7-12.5 6.7-12.5z"/></svg>