<svg xmlns="http://www.w3.org/2000/svg" width="409" height="37"><path fill="#1A1919" fill-rule="evenodd" d="M12.614 35.61c-.896.327-1.792.088-2.669.191-.457-.3-.876-.153-1.287.104-.332-.24-.693-.01-1.04-.055a2.836 2.836 0 0 0-.958.066c-.563.114-1.138-.055-1.692.125-.091.027-.263.017-.31-.044-.222-.283-.423-.136-.65-.027-.2.098-.438-.376-.634.04-.01.02-.062.037-.095.031-.313-.01-.633-.07-.94-.038-.284.027-.547.202-.827.223-.599.05-1.002-.32-1.093-.938a54.509 54.509 0 0 1-.158-1.184c-.007-.027.012-.065.04-.175.428-.136.893-.289 1.367-.426.476-.147.966-.267 1.446-.414.497-.158.856-.409 1.059-.966.119-.327.234-.67.322-1.009.119-.48-.2-1.103.481-1.409.035-.016-.122-.333-.083-.485.205-.862.04-1.736.11-2.598.022-.283.082-.56.11-.84.016-.136 0-.273-.006-.404a148.08 148.08 0 0 0-.06-1.162c-.018-.399.034-.775.418-1.086a28.405 28.405 0 0 0-.484-.35c-.01-.07-.04-.147-.02-.207.151-.442.313-.85.105-1.348-.117-.283-.058-.644-.031-.966.103-1.397.05-2.799.05-4.202 0-.562-.083-1.124-.045-1.69.04-.569-.064-1.18.106-1.709.202-.633-.125-1.278.189-1.872.013-.022.005-.07-.008-.104-.386-1.32-.117-2.712-.439-4.044-.061-.272-.024-.567-.008-.85.024-.42-.088-.787-.385-1.098-.817.055-1.635.104-2.47.16-.262-.329-.581-.58-.68-.979-.11-.446.058-.86.208-1.27.133-.356.44-.563.772-.41.458.218.922.114 1.373.147.445.038.938.137 1.366-.137.39.22.764-.07 1.14-.038.375.028.745-.169 1.054-.109.885.16 1.715-.267 2.625-.104.162.142.377.28.53.47.223.284.547.59.563.901.033.572.374.998.503 1.495.243.928.723 1.735 1.1 2.592.194.442.537.818.81 1.228.245.36.4.753.454 1.201.075.655.29 1.27.736 1.778.067.082.166.164.182.257.195 1.053.789 1.91 1.352 2.783.192.305.323.644.486.971.56 1.124 1.104 2.265 1.694 3.378.332.628.69 1.255 1.02 1.894.472.928.96 1.85 1.424 2.783.224.447.39.927.615 1.37.16.327.346.638.57.917.21.267.724.223.834-.087.3-.853 1.075-1.464 1.183-2.4.558-.875.659-1.966 1.363-2.78.18-.207.287-.502.36-.775.325-1.145 1.125-2.085 1.416-3.247.029-.097.063-.229.139-.283.521-.405.489-1.124.92-1.577.067-.077.13-.208.117-.295-.077-.529.195-.9.527-1.249.072-.077.114-.187.159-.279.3-.66.636-1.299.875-1.975.232-.65.545-1.255.864-1.862.266-.508.586-.98.752-1.554.16-.54.552-1.01.637-1.595a.704.704 0 0 1 .117-.3c.535-.735.834-1.593 1.18-2.422.21-.492.224-.48.804-.895.175-.126.369-.252.484-.426.172-.25.373-.284.648-.262.161.011.334-.082.498-.136.138-.039.287-.153.404-.126 1.057.235 2.07-.267 3.12-.152.504.054 1.027-.05 1.519.038.377.065.602-.186.904-.224.695.23.787 1.025 1.334 1.342.099.378.046.693-.096.994-.229.458-.599.72-1.117.735-.436.017-.87-.005-1.304.012-.447.021-.808.278-.92.661-.276.927-.761 1.778-.907 2.761-.142 1.02-.02 2.008.146 3.007.012.065.107.147.089.185-.326.742.119 1.495-.04 2.243a1.64 1.64 0 0 0 .02.747c.108.405.117.765-.06 1.158-.081.18-.042.431-.015.638.088.65.064 1.288-.051 1.932-.039.207-.03.431-.02.644.066 1.528-.022 3.061.142 4.59.063.595.043 1.195.147 1.795.093.55.07 1.124.105 1.686.038.605.157 1.222.111 1.822-.047.584.252 1.108.139 1.708-.108.562.236 1.104.24 1.687.002.294.239.59.385.928.218.12.464.272.726.398.396.186.756.262 1.229.077.741-.29 1.513.42 1.431 1.238-.035.393-.123.781-.193 1.195-.457.317-.923.562-1.492.278-.276-.136-.505.017-.721.126-.269.136-.473.191-.794.076-.314-.109-.71.022-1.067.033-1.296.033-2.59.082-3.886.076-1.11-.005-2.205.033-3.275.377-.228.071-.492.04-.738.055-.794.043-1.22-.339-1.256-1.135-.01-.289.012-.579.017-.868.015-.595.14-.764.715-.9.244-.055.505-.055.753-.076.866-.072 1.735-.099 2.598-.498.026-.343.111-.709.069-1.053-.127-.982.086-1.92.217-2.88.098-.716.442-1.475.048-2.217-.048-.08-.038-.218 0-.31.276-.699-.012-1.43.178-2.069-.156-.164-.363-.284-.358-.393.065-1.174.056-2.346-.13-3.515.297-.873-.202-1.783.101-2.657.014-.033.005-.07.002-.109-.04-.436-.48-.846-.087-1.309-.04-.459.133-.939-.107-1.387.29-.6-.122-1.217.014-1.785.138-.589-.014-1.15.084-1.724.105-.605-.065-1.222.023-1.838.047-.328-.155-.694-.275-1.136-.175.17-.343.262-.395.398-.264.672-.46 1.365-.75 2.025-.212.485-.515.95-.812 1.398-.439.66-.75 1.374-1.064 2.1-.154.366-.315.726-.506 1.07-.796 1.413-1.292 2.963-1.998 4.42-.279.584-.462 1.222-.787 1.774-.42.72-.568 1.566-1.104 2.221-.094.736-.667 1.25-.863 1.96-.18.643-.62 1.216-.938 1.821a.507.507 0 0 0-.052.214c-.041.77-.524 1.401-.663 2.144a1.008 1.008 0 0 1-.15.404c-.917 1.255-1.24 2.811-2.116 4.11-.19.043-.3-.116-.358-.28a2.933 2.933 0 0 0-.707-1.069c-.127.163-.213.28-.293.382-.293-.103-.282-.3-.309-.475-.049-.327-.152-.605-.436-.835-.183-.147-.354-.398-.387-.622a3.92 3.92 0 0 0-.418-1.287 6.632 6.632 0 0 1-.459-1.207c-.16-.56-.687-.9-.832-1.473-.093-.377-.384-.704-.46-1.075-.12-.61-.595-1.08-.613-1.72-.002-.059-.04-.163-.09-.179-.531-.202-.482-.759-.732-1.119-.508-.726-.699-1.577-1.117-2.33a39.852 39.852 0 0 1-1.3-2.619c-.436-.95-.857-1.899-1.382-2.806-.163-.278-.25-.6-.356-.91-.185-.535-.226-1.093-.673-1.55-.303-.317-.343-.868-.585-1.267-.405-.666-.864-1.288-1.068-2.057-.06-.235-.377-.393-.565-.573-.3.088-.477.257-.487.545-.058 1.37-.134 2.746-.151 4.121-.009.785-.058 1.577.125 2.363.079.34.008.72-.008 1.08-.093 1.806-.194 3.607-.276 5.408-.016.4.06.797.051 1.195-.01.503-.067 1.004-.093 1.506-.05.901-.14 1.806-.127 2.702.008.458.213.906.322 1.358.045.175.158.383.11.52-.26.687.16 1.19.48 1.674.218.34.589.677.96.792.595.185 1.165.551 1.874.272.682-.272 1.01-.049 1.252.617.035.098.011.235.07.317.267.403.292.791.043 1.217-.085.147-.066.35-.093.485m172.231.126c-.136-.115-.265-.246-.418-.338-.256-.164-.537-.246-.787.016-.132.142-.258.207-.466.175-1.087-.153-2.14.23-3.217.256-.224.005-.436.261-.664.278-.786.071-1.58.093-2.371.131-.066 0-.137-.044-.194-.066-.218-.289-.437-.573-.638-.86-.321-.464-.216-1.022.28-1.318.494-.288.993-.582 1.588-.653.535-.06 1.064-.158 1.678-.246.706-.583.969-1.5 1.049-2.428.053-.639.38-1.245.23-1.905-.155-.649.099-1.294.045-1.937-.034-.339.179-.529.249-.79-.33-.864-.36-1.677-.345-2.73.006-.666.139-1.354-.095-2.025-.056-.163-.028-.354-.026-.54.009-.61-.051-1.239.05-1.839.106-.622-.4-1.19-.086-1.8-.336-.945-.092-1.927-.171-2.893-.077-.928-.053-1.872-.081-2.805-.046-1.512-.084-3.019-.153-4.524a1.775 1.775 0 0 0-.407-1.085c-.578-.683-1.196-1.196-2.177-1.19-.783.005-1.566-.17-2.38-.268-.577-.546-.834-1.205-.6-1.992.24-.25.413.017.663.044.15-.137.325-.3.532-.497.92.388 1.918.158 2.863.382a.958.958 0 0 0 .43-.022c.71-.169 1.43-.158 2.15-.12.214.005.448-.01.63.076.65.312 1.376.552 1.89 1.016.559.513 1.222 1.025 1.372 1.877.035.207.126.426.262.578.898.993 1.619 2.112 2.38 3.203.539.765 1.155 1.474 1.747 2.2.457.557 1.005 1.06 1.362 1.67.315.545.688.905 1.307 1.026l.229 1.13c.252.147.544.283.798.474.16.12.279.311.395.485.262.378.51.765.773 1.142.035.055.118.114.174.11.609-.023.839.44 1.142.828.258.327.525.655.809.94.3.3.4.681.652.981.082.11.207.196.322.267.682.431.684.431.843 1.255.397.274.808.492.935 1.06.08.342.386.693.678.922.359.283.573.644.788 1.02.159.268.202.638.617.687.058.005.136.082.149.137.183.726.904.747 1.392 1.06.249.152.507.037.563-.279.05-.29.255-.409.43-.666-.096-.186-.212-.405-.322-.623-.115-.24-.111-.47-.02-.73.119-.36.167-.743.234-1.12.014-.066-.036-.137-.046-.207-.047-.289-.026-.376.14-.59-.02-.032-.032-.07-.055-.093a1.625 1.625 0 0 0-.163-.108c.145-.6.29-1.185.424-1.774a.896.896 0 0 0 .01-.327c-.027-.339-.436-.573-.221-1.004.147-.295.022-.633-.077-.95-.11-.344-.146-.709-.204-1.064-.033-.174-.09-.365-.054-.535.13-.65-.006-1.293-.046-1.942-.016-.246-.01-.514.065-.748.165-.519.117-1.037-.163-1.463-.192-.294-.197-.562-.095-.802.23-.529.189-1.003.035-1.56-.142-.508-.07-1.07-.288-1.584a.705.705 0 0 1 .039-.522c.153-.257.096-.475.033-.727-.043-.175-.101-.399-.03-.529.328-.59.095-1.124-.093-1.675-.233-.263-.546-.35-.875-.36a15.38 15.38 0 0 0-2.14.081c-.807.093-1.485-.077-2.15-.41-.107-.845-.16-.666.296-2.063 1.07-.102.487.312.888.301a4.832 4.832 0 0 1 3.697-.268c.294.093.558.088.848.093.282.006.538-.142.85-.049.19.06.453-.13.69-.19.175-.049.354-.077.534-.094 1.043-.07 2.082-.13 3.122-.2.249-.018.5-.104.72.108.04.044.134.044.206.044 1.02.016 1.02.016 1.712.37 0 .421.01.852 0 1.29-.012.522-.165.681-.72.74-.215.022-.433.056-.65.044-.88-.06-1.696.246-2.546.388-.567.092-.826.404-.99.862-.095.267-.106.568-.135.851-.071.606-.09 1.223-.206 1.817-.186.94-.151 1.861-.021 2.795.07.496.11 1.004.158 1.506a.978.978 0 0 1-.02.311c-.076.234-.2.463-.24.71-.041.24-.01.49-.01.775.17.158.358.333.57.523-.027.142-.087.316-.084.491.009 1.01 0 2.025.076 3.034.057.71.107 1.441.04 2.128-.12 1.267-.051 2.516-.044 3.772 0 .47-.048.938-.07 1.408-.005.103-.052.223-.02.316.277.791.272 1.604.2 2.418.362.622.295 1.325.383 2.002.015.105.108.224.082.306-.313.796-.225 1.604-.065 2.418-.427.29-.068.703-.156 1.058-.121.48-.165.977-.246 1.506-.3.147-.54-.12-.863-.294l-.881.371c-.442-.388-1.017-.65-1.167-1.327-.101-.447-.34-.774-.852-.85-.147-.023-.277-.19-.408-.312-.527-.485-.711-1.255-1.355-1.643-.138-.507-.502-.872-.832-1.249-.548-.623-1.031-1.315-1.598-1.905-.484-.5-.872-1.042-1.253-1.604a2.78 2.78 0 0 0-.517-.55c-.916-.754-1.802-1.519-2.378-2.593-.524-.977-1.416-1.633-2.231-2.342a5.441 5.441 0 0 1-.514-.529c-.25-.284-.326-.758-.827-.764-.25-.305-.504-.61-.762-.916.06-.366.064-.666-.261-.972-.577-.546-1.236-1.037-1.57-1.795a.421.421 0 0 0-.134-.17c-1.003-.682-1.6-1.702-2.285-2.657-.371-.524-.917-.917-1.403-1.39-.067-.23-.112-.526-.244-.766-.1-.169-.307-.3-.497-.387-.25-.12-.515.05-.574.322-.118.595-.12 1.195-.087 1.8.01.176.089.41.01.525-.3.436-.14.895-.147 1.348-.01.534.087 1.085-.15 1.598.214.71.117 1.436.08 2.145-.04.726.16 1.408.268 2.101.069.464-.077.928.078 1.36.16.451.11.916.139 1.38.105 1.937.295 3.868.347 5.806.016.65-.011 1.277.246 1.882.13.295.28.584.372.884.157.514.512.672.997.651.617-.028 1.23-.06 1.845-.072.216-.005.43.066.625.1.375.331.414.768.439 1.2.024.386.005.774.005 1.25-.33.185-.683.407-1.216.25-.4-.115-.855-.06-1.283-.049-.246 0-.5.043-.731.125m68.254-30.079c-.287-.333-.426-.638-.652-.731-.38-.153-.6-.535-.955-.633-.418-.126-.625-.481-.957-.677a1.186 1.186 0 0 0-.497-.18c-.322-.033-.653-.022-.976-.027-.287-.011-.604.049-.855-.055a2.134 2.134 0 0 0-1.263-.093c-.45.093-.921.104-1.374.18-.318.049-.63.213-.941.208-.583-.012-1.045.245-1.503.54-.15.098-.29.213-.447.3-1.503.829-2.095 1.375-3.116 2.882-.293.43-.61.857-.876 1.309-.234.404-.407.847-.612 1.26-.081.158-.268.317-.252.464.067.852-.612 1.435-.765 2.222-.111.556-.256 1.157-.613 1.664-.135.197-.14.48-.195.726-.058.25-.133.502-.137.747-.005.235-.127.536.179.683.4.185-.112.41.046.627.493.687.385 1.512.364 2.26-.024.905.09 1.778.197 2.663.027.207.066.485.208.605.409.344.355.852.53 1.272.192.43.605.797.349 1.353-.042.088.079.267.155.382.383.568.776 1.124 1.016 1.774.072.202.219.377.347.55.583.738 1.159 1.479 1.758 2.2.32.394.658.78 1.04 1.102.38.328.899.497 1.23.852.39.415.898.556 1.332.85.359.24.754.416 1.195.433.513.79 1.277.48 1.979.452.136-.005.283-.028.41.005 1.33.333 2.542.012 3.593-.775.844-.626 1.729-1.19 2.614-1.746.837-.534 1.332-1.402 2.045-2.057.362-.333.537-.862.887-1.206.429-.42.325-1.032.669-1.462.044-.055.042-.164.092-.197.497-.278.473-.861.742-1.277.135-.202.084-.552.242-.693.343-.305.284-.638.205-.993-.086-.398-.095-.737.197-1.114.16-.201.166-.676.034-.91-.152-.29-.16-.541-.147-.82.02-.502.147-1.026.04-1.495-.13-.556.017-.966.336-1.315-.167-.262-.447-.507-.403-.665.159-.552-.165-1.06-.05-1.583a1.833 1.833 0 0 0-.251-1.353c-.41-.644-.477-1.326-.522-2.052-.027-.415-.133-.895-.375-1.218-.478-.627-.985-1.216-1.204-1.991-.016-.066-.082-.114-.125-.175-.726-.9-1.54-1.713-2.481-2.385-.483-.343-.908-.693-1.066-1.287-.02-.082-.122-.141-.267-.29-.05.284-.084.475-.154.89m4.46 27.586c.156.163.239.25.326.349-.562.316-1.116.627-1.672.945-1.31.13-2.37 1.052-3.68 1.178-.138.016-.265.109-.403.158-1.29.54-2.655.715-4.022.715-1.035 0-2.095-.12-3.104-.35-.813-.185-1.661-.376-2.375-.884-.087-.06-.185-.136-.286-.146-.826-.088-1.462-.551-2.134-.983-.504-.322-1.078-.541-1.634-.813-.191-.361-.388-.737-.594-1.107-.146-.257-.37-.41-.614-.58-.767-.551-1.71-.965-1.933-2.035-.36-.327-.603-.775-.977-1.07-.211-.174-.364-.338-.438-.583-.145-.48-.32-.967-.415-1.463-.178-.927-.418-1.823-.963-2.608-.194-.278-.271-.573-.307-.906-.035-.28-.161-.541-.25-.83.34-.344.513-.698.202-1.222-.354-.612-.293-1.337-.194-1.997.058-.371.13-.71-.028-1.043-.247-.53-.132-1.07-.115-1.61 0-.037-.004-.081.013-.11.5-.605.293-1.254.193-1.936-.06-.42-.223-.956.284-1.305.057-.038.07-.202.042-.288-.152-.453.024-.858.157-1.261.227-.672.663-1.26.722-2.008.033-.421.42-.65.907-.65a3.768 3.768 0 0 1 1.163-1.948c.619-.568 1.078-1.261 1.562-1.932.198.038.366.066.593.104.173-.644.799-.852 1.262-1.217.498-.398 1.093-.693 1.676-.971.648-.305 1.228-.77 1.99-.825.238-.016.477-.18.688-.316.984-.628 2.078-.796 3.218-.796h2.817c.109 0 .217-.012.323.01 1.03.186 2.092.278 3.079.595 1.159.376 2.319.803 3.305 1.583.395.316.837.578 1.278.824.284.152.607.234.697.61a.37.37 0 0 0 .217.23c.649.137.985.672 1.447 1.059.502.425.84.922.96 1.572.039.212.064.44.165.627.113.213.277.5.474.545.638.164.678.563.552 1.01.338.404.635.758.947 1.102.27.306.472.644.495 1.059.017.268.067.48.328.639.128.075.227.3.232.458.014.316-.136.655-.063.939.085.338.083.622-.002.949-.192.737-.107 1.436.42 2.026.284.32.349.675.366 1.1.019.575-.232 1.136-.02 1.714.062.17-.062.306-.254.41-.223.12-.201.163-.162.628.13.005.266.01.445.022 0 .458-.007.917.004 1.374.006.306-.068.557-.3.775-.303.285-.477.585-.335 1.054.065.218-.1.546-.227.785-.288.54-.561 1.054-.556 1.714.004.393-.268.797-.425 1.185-.078.196-.174.376-.261.55a8.105 8.105 0 0 1-.347-.087c-.055.038-.141.066-.164.12-.082.197-.207.404-.204.605.008.405-.127.694-.411.96-.125.122-.167.319-.26.47-.15.247-.281.503-.465.716-.234.273-.446.55-.636.856-.432.667-1.08 1.14-1.754 1.545-.12.076-.323.01-.564.01M124.882 24.79c.581.49 1.01 1.134 1.316 1.87.05.132.146.252.184.388.1.354.652.273.663.748.011.442.488.59.714.906.211.29.553.502.705.813.332.676.955 1.064 1.392 1.626.348.442.805.677 1.293.89 1.02.447 2.057.862 3.073 1.326.375.168.755.24 1.154.245.655 0 1.306-.043 1.957-.005.61.033 1.2-.114 1.816-.082.434.022.881-.24 1.323-.377.202-.064.41-.212.608-.196 1.008.06 1.72-.639 2.632-.912.285-1.107.311-2.226.307-3.333-.003-.607-.01-1.208.113-1.808.117-.555-.055-1.14.166-1.702.065-.163-.07-.409-.108-.622-.113-.67-.229-1.348-.362-2.155-.056-.033-.228-.224-.414-.24a33.573 33.573 0 0 0-2.334-.11c-.206-.005-.414.131-.624.158-.244.022-.489 0-.713 0-.845-1.98-.845-1.98-.218-3.41.092 0 .256-.044.29.005.545.776 1.39.661 2.158.704.497.028 1.003-.092 1.506-.104 1.125-.02 2.247-.02 3.365-.032.15 0 .308.022.434-.027.843-.333 1.724-.12 2.583-.213.32-.033.62.016.944-.137.382-.186.497-.098 1.268.394.04.065.094.12.111.185.336 1.386-.12 1.593-1.125 2.08-.538.261-1.12.321-1.675.326-.527.006-.8.197-.999.627-.024.055-.095.094-.13.127.078.174.22.342.214.496-.018.453-.095.895-.146 1.348-.015.104-.07.262-.026.311.438.431.113.928.015 1.316-.096.398-.148.73-.074 1.123.074.387.07.792.074 1.19.011.497-.142 1.042.016 1.478.177.481 0 .901.062 1.343.015.11-.02.235.027.316.383.64.071 1.087-.409 1.518v.868c-.092.343-.567.316-.447.736.033.12-.202.268-.417.197-.128-.044-.335-.13-.385-.082-.398.426-.95.284-1.425.41-.45.125-.894.267-1.348.387a.964.964 0 0 1-.43.011c-.39-.077-.78-.197-1.1.17-.57-.18-1.067.277-1.673.146-.5-.109-1.07.05-1.599.163-1.08.236-2.168.088-3.235-.01-.734-.066-1.482-.235-2.225-.284-1.272-.08-2.38-.73-3.615-.922-.106-.017-.208-.07-.31-.093-.36-.088-.839.12-.996-.432-.434 0-.579-.37-.715-.605-.118-.043-.157-.066-.187-.06-.883.082-1.464-.479-2.07-.976-.418-.345-.807-.715-1.23-1.049-.236-.18-.46-.332-.533-.654a.5.5 0 0 0-.265-.294 1.048 1.048 0 0 1-.622-.706c-.039-.124-.136-.272-.246-.332-.556-.31-.835-.862-1.229-1.315-.41-.475-.713-.972-.82-1.599-.027-.158-.182-.3-.294-.447-.242-.305-.248-.305-.237-.776-.159-.093-.34-.196-.53-.305-.025-.098-.068-.202-.073-.31-.022-.432-.053-.863-.04-1.3.006-.338-.036-.627-.325-.863-.12-.097-.157-.31-.208-.479-.029-.098.027-.257-.029-.31-.52-.476-.43-1.115-.472-1.715l.448-.382c-.19-.07-.317-.114-.523-.18-.114-1.179-.29-2.379-.036-3.597.165-.774.287-1.565.497-2.329.27-.972.59-1.932.931-2.877.131-.37.385-.692.585-1.03.093-.153.25-.296.28-.459.158-.86.771-1.39 1.333-1.98.694-.727 1.406-1.436 2.04-2.217.157-.196.311-.409.624-.327.06.016.18-.006.2-.044.221-.48.804-.38 1.123-.758.568-.666 1.318-1.119 2.11-1.496.976-.469 1.951-.948 2.927-1.423.194-.093.418-.268.594-.235 1.05.196 1.946-.525 2.964-.442.524-.29 1.097-.35 1.676-.339 1.086.022 2.17.104 3.253.087.888-.01 1.655.426 2.495.574.245.038.491.103.73.18.574.185 1.2.23 1.712.605.14.104.325.153.497.191.55.131.544.137 1.107.677.05.043.13.114.168.098.324-.14.54.033.768.224.068.06.198.071.298.071.653-.01.955.426.972.95.014.622.21 1.194.286 1.795.047.36.036.721.048 1.08 0 .147-.048.317.011.426.436.791.18 1.698.446 2.51.055.164.04.366.013.541-.017.13-.07.311-.172.376-.452.3-.924.584-1.506.426-.292-.082-.49-.25-.572-.584-.257-1.004-.47-2.02-.827-2.996-.235-.639-.496-1.288-.854-1.866-.218-.344-.625-.585-.974-.84a13.28 13.28 0 0 0-1.26-.835c-.746-.42-1.45-.96-2.372-.945-.073 0-.15.011-.216-.005-1.36-.399-2.722-.126-4.08-.017-.073.006-.146.017-.22.017-.317-.017-.653-.115-.938-.033-.413.115-.802.333-1.17.557-.335.196-.657.327-1.019.147-.27-.13-.395.202-.556.175-.619-.099-.888.518-1.42.622a4.233 4.233 0 0 0-1.395.578c-.577.366-1.105.814-1.625 1.255a9.3 9.3 0 0 0-.984.971c-.288.317-.59.651-.77 1.027-.159.333-.54.24-.72.59-.295.572-.67 1.102-.865 1.73-.118.37-.326.713-.453 1.084-.197.57-.37 1.142-.539 1.72-.047.17.006.387-.079.53-.37.583-.207 1.178-.098 1.778.033.17.096.365.045.513-.192.541-.115 1.065-.006 1.604.077.377.21.764.01 1.174-.075.148.023.421.118.6.2.377.261.753.11 1.151-.1.252-.017.47.042.716.148.632.271 1.248.612 1.827.243.421.257.972.38 1.496m260.768-3.11c.181.017.316.033.457.033.82-.011 1.641-.224 2.45.065.088.033.236 0 .312-.06.273-.213.541-.066.82-.05.501.023 1.004 0 1.51-.016.251-.011.531-.125.748-.043.317.12.576-.131.838-.06.308.082.548.092.785-.158.041-.044.197.022.298.027.175.016.35.038.525.033.284-.017.424-.29.278-.546-.1-.185-.352-.377-.325-.53.082-.458-.395-.763-.248-1.244.152-.485-.456-.703-.517-1.141-.01-.065-.08-.152-.058-.201.207-.486-.193-.813-.333-1.19-.407-1.114-.815-2.226-1.11-3.378-.327-1.293-.93-2.483-1.452-3.7-.088-.217-.419-.212-.52.01-.153.323-.28.662-.404 1-.478 1.288-.937 2.58-1.435 3.864-.106.278-.374.502-.483.786-.215.567-.378 1.156-.568 1.729-.093.273-.149.578-.317.79-.297.394-.376.842-.465 1.289-.144.742-.23 1.5-.707 2.135-.094.12-.054.338-.079.556M404.03 33.1c1.271.436 2.521.464 3.874.376.038.055.108.169.19.273.094.109.191.212.29.322-.006.24 0 .49-.036.737-.076.48-.436.823-.892.764-.633-.093-1.22.07-1.83.169-.173.032-.374.109-.516.048-.302-.11-.57-.01-.85.034-.774.125-1.537.365-2.34.147-.19-.055-.424.022-.636.038-.177.016-.363.005-.529.049-.635.169-1.269-.114-1.932.099-.597.19-1.284.125-1.93.152-.18.01-.398.016-.529-.077-.366-.261-.76-.103-1.178-.114-.07-.174-.188-.332-.193-.496-.003-.284.06-.573.095-.857.084-.688.253-.896.853-1.021.137-.027.286-.038.433-.032.96.027 1.75-.345 2.47-1.064-.31-1.027-.422-2.128-.979-3.138-.396-.715-.562-1.556-.836-2.342a31.997 31.997 0 0 0-.387-1.004c-.038-.103-.132-.19-.14-.288-.049-.426-.026-.847-.345-1.223-.248-.295-.366-.7-.543-1.06-1.039-.24-2.044.012-3.045.024-.247.005-.483.087-.739-.012-.117-.05-.293-.022-.412.038-.409.197-.847.115-1.272.175-.376.055-.702.207-1.133.148-.509-.072-1.056.152-1.583.25-.108.022-.225.028-.313.082-.34.197-.504-.551-.827-.18-.262.299-.513.109-.77.092-.31-.026-.62-.076-.98-.124-.5.627-.725 1.43-1.016 2.199-.13.332-.21.687-.323 1.026-.192.562-.545 1.064-.55 1.702-.006.3-.24.6-.379.89-.533 1.124-.842 2.292-.813 3.536.89.158 2.373.152 3.694-.021.375.49.671.993.527 1.675-.088.419-.339.649-.712.714-.845.147-1.7.24-2.546.382-.229.043-.405.033-.615-.071a1.703 1.703 0 0 0-.726-.186c-.422 0-.874.186-1.262.088-.453-.11-.862-.071-1.283.027-.918.202-1.838.289-2.777.153-.202-.027-.42.066-.63.088-.137.015-.29.037-.413-.012-.884-.376-1.043-.415-.699-1.451.151-.464.43-.868.97-.923 1.031-.098 1.887-.621 2.753-1.13.276-.156.418-.163.624.105.098.126.176.245.321.175a.67.67 0 0 0 .283-.306c.107-.256-.177-.567.071-.808.27-.262.071-.546.056-.84.238-.158.588-.164.686-.551.14-.551.453-1.06.226-1.665-.052-.131-.087-.393.235-.261.32-.563.642-1.124.934-1.633-.068-.29-.102-.501-.176-.703-.183-.492-.068-.917.265-1.294.22-.257.34-.524.317-.883-.03-.4.105-.775.308-1.124.615-1.065 1.012-2.21 1.35-3.39.15-.513.393-1.004.631-1.484.285-.573.376-1.206.705-1.774.317-.551.415-1.217.726-1.801.214-.398.26-.89.416-1.326.24-.677.494-1.336.766-2.003.268-.665.58-1.314.842-1.98.396-1 .772-2.003 1.151-3.008.3-.774.573-1.56 1.172-2.177.144-.147.221-.36.316-.557.29-.572.577-1.15.87-1.73.193-.386.51-.567 1.015-.577.184.517.406 1.042.567 1.588.184.627.44 1.199.757 1.779.48.889.826 1.855 1.165 2.805.12.332.143.676.424.938.09.087.126.262.131.403.044 1.076.534 2.009.9 2.98.18.476.301.966.474 1.44.356.983.763 1.949 1.08 2.943.224.693.612 1.293.86 1.969.206.579.391 1.169.585 1.752.044.137.027.305.103.415.551.835.713 1.817 1.088 2.713.23.534.473 1.052.703 1.587.2.464.413.928.58 1.403.452 1.337.991 2.63 1.56 3.918.335.753.608 1.533 1.03 2.249.153.26.113.632.172 1.042M76.833 21.646c.297-.496.751-.376 1.18-.35.173.012.355.072.526.056a11.9 11.9 0 0 1 3.017.016.797.797 0 0 0 .41-.033c.384-.164.768-.131 1.173-.087.567.065 1.14.065 1.7-.224-.033-.436-.39-.781-.312-1.223-.504-.207-.35-.736-.52-1.107-.135-.29-.108-.716-.316-.906-.393-.366-.362-.84-.52-1.266-.11-.3-.24-.595-.345-.901-.039-.12-.028-.256-.037-.393-.012-.131.027-.29-.03-.392-.278-.54-.59-1.064-.875-1.6-.254-.474-.5-.95-.54-1.51-.025-.317-.176-.618-.276-.94a45.813 45.813 0 0 1-.819-.17c.016.64-.559 1.038-.494 1.66.005.028-.24.088-.39.143-.087.44-.167.899-.272 1.347-.102.426-.403.737-.637 1.092-.234.354-.194.889-.289 1.342-.036.175-.066.404-.18.492-.5.37-.456.926-.56 1.44-.038.207-.035.42-.05.622-.213.13-.394.24-.569.349 0 .366.013.693-.194 1.042-.254.42-.379.939.22 1.5M88.53 33.042c.138-.682-.003-1.201-.233-1.698-.238-.53-.418-1.085-.712-1.571-.208-.34-.117-.611-.027-.933-1.013-1.01-1.482-2.2-1.125-3.63-.223-.223-.433-.41-.636-.616-.22-.23-.243-.502-.144-.83-.55-.316-1.188-.321-1.762-.267-.974.093-1.938-.147-2.904 0-.788-.234-1.576.017-2.36.049-.855.039-1.697.268-2.568.258-.242-.007-.482.14-.725.206a.825.825 0 0 0-.603.567c-.115.344-.235.683-.349 1.027-.135.376-.192.802-.413 1.118-.628.917-.799 1.987-1.11 3.013-.116.366-.253.748-.455 1.07-.263.419-.38.856-.353 1.342.016.355.003.715.003 1.08.96.622 2.101.246 3.174.824.002.005.127.136.201.295.237.508.164.928-.229 1.266-.246.218-.515.403-.76.589h-1.603a19.093 19.093 0 0 1-.096-.382c-.27-.147-.19.47-.576.24-.163-.104-.512.158-.774.158-.24-.005-.477-.147-.78-.251-.175.077-.396.18-.625.257-.13.044-.295.01-.416.07-.263.148-.375-.594-.679-.103-.245-.011-.49-.032-.739-.032-.289 0-.578.032-.868.032-.25 0-.502-.022-.75-.038-.289-.017-.579-.04-.868-.055-.147-.005-.297.016-.436-.01-.99-.197-1.195-.42-1.059-1.375.022-.148.025-.29.043-.486.202-.153.433-.322.653-.497.237-.196.521-.29.814-.24.45.082.848-.027 1.27-.158.232-.077.535-.317.79.01.084-.305.548-.321.548-.692.001-.278.131-.475.33-.65.215-.196.464-.377.601-.622.312-.551.58-1.14.842-1.73.088-.191.115-.415.148-.628.077-.54.253-1.025.624-1.45.462-.536.726-1.147.732-1.883.005-.388.131-.787.28-1.147.298-.725.69-1.418.958-2.155.126-.333.522-.355.587-.682.054-.284.011-.677.181-.824.597-.525.447-1.256.637-1.89.137-.446.29-.871.476-1.303.187-.431.344-.83.662-1.2.281-.327.375-.82.532-1.245.582-1.55 1.024-3.148 1.9-4.573.057-.087.13-.207.11-.295-.13-.507.193-.894.351-1.325.141-.404.33-.797.487-1.201a4.71 4.71 0 0 0 .244-.703c.114-.492.196-.994.511-1.41.157-.206.267-.42.222-.702a.51.51 0 0 1 .127-.393c.237-.225.256-.503.27-.798.02-.398.007-.807.491-.981.046-.022.062-.12.096-.176.347-.638.347-.638 1.192-.976.425.66.758 1.37.967 2.138.077.279.166.552.272.82.324.84.716 1.658.982 2.515.36 1.173.886 2.287 1.213 3.476.37 1.343 1 2.608 1.33 3.973.772.856.677 2.112 1.365 3.012-.026.634.351 1.153.5 1.736.173.715.535 1.392.85 2.074.23.49.32 1.025.49 1.533.385 1.162.874 2.287 1.345 3.416.06.137.262.213.434.344-.064.223-.204.464-.188.693.02.235.208.454.295.688.153.392.297.797.417 1.205.104.344.163.7.241 1.043.431.12.278.535.412.808.26.523.696.91 1.096 1.32.303.306.641.579 1.064.96.235.012.637.088 1.026.044.571-.054.97.24 1.373.54.426.323.505.66.282 1.142-.088.196-.216.376-.348.6-.808-.191-1.63.07-2.464-.006-.49-.043-1.01.044-1.492.174-.48.132-1.007-.076-1.447.235-.719-.016-1.438-.032-2.154-.055-.757-.027-1.503-.054-2.266.06-.513.088-1.078.022-1.593-.098-.389-.087-.618-.474-.766-.856-.01-.032-.003-.076-.01-.11-.179-1.058.208-1.533 1.325-1.626.286-.027.587.012.862-.054.414-.104.814-.268 1.237-.41M291.456 5.182c-.652-.3-1.307-.425-1.939-.262-.686.169-1.286.098-1.883-.224-.092-.054-.205-.076-.306-.114-.207-.715-.188-1.365.56-1.746-.052-.278-.093-.507-.149-.786.423.07.763.169 1.104.169.36.005.717-.071 1.071-.137.527-.097 1.087.104 1.59-.19.674.305 1.407.103 2.096.223.214.038.356.092.581 0 .576-.234.824-.278 1.523-.076.46.13.8-.224 1.236-.12.416.098.887.175 1.285.076.784-.196 1.56-.24 2.352-.207.494.022.988.065 1.417.49-.15.683.08 1.469-.375 2.206-.198.01-.414-.017-.613.032-.44.115-.895-.06-1.349.142-.415.18-.912.186-1.369.289a.934.934 0 0 0-.373.18c-.316.24-.617.49-.955.769.015.214.121.503.022.678-.138.246-.149.463-.149.719-.005.906-.005 1.802.095 2.707.115 1.032.051 2.086.061 3.133.01.97.025 1.948.015 2.925 0 .469-.025.944-.094 1.407-.063.47-.142.924.045 1.387.062.158.054.366.024.54-.198 1.114-.029 2.226.038 3.335.052.905.131 1.806.15 2.712.012.682-.046 1.369-.094 2.05-.032.465-.174.912.151 1.36.098.136-.106.459-.083.689.065.643.167 1.287.275 1.925.1.6.221 1.2.328 1.752.618.349 1.191.447 1.811.174.147-.066.362-.038.525.016.838.268 1.683.257 2.537.094.21-.044.455-.11.641-.044.758.262 1.565.125 2.338.317.505.12 1.06.038 1.59.016.348-.011.694-.131 1.032-.104.726.049 1.198-.147 1.277-.955.022-.196.23-.365.337-.55.266-.465.526-.934.787-1.404.033-.065.085-.147.067-.201-.138-.453-.24-.84.197-1.266.28-.273.34-.775.488-1.18.047-.124.087-.256.11-.386.086-.535.126-.584.55-.524.286.038.57.109.79.158.562.524.581 1.096.43 1.74-.229.983-.416 1.965-.744 2.932-.295.872-.306 1.839-.433 2.766-.03.25-.022.508-.058.758-.035.246-.309.475-.548.399-.704-.22-1.426-.006-2.134-.1-.17-.021-.349.056-.53.067-.353.016-.726.087-1.064.027-1.365-.262-2.717-.12-4.083-.038-1.356.082-2.736.224-4.106-.05a4.583 4.583 0 0 0-1.593 0 4.573 4.573 0 0 1-1.252.06c-.425-.032-.858.11-1.287.138-1.546.092-3.085.294-4.634.19-.324-.016-.65.056-.977.05a19.442 19.442 0 0 1-1.5-.093c-.247-.027-.386-.251-.398-.46-.023-.32 0-.653.062-.971.05-.234.194-.458.281-.653.513-.071.977-.098 1.424-.202.42-.093.923-.153 1.206-.421.31-.29.647-.551.937-.856.517-.546.84-1.18.9-1.933a41.35 41.35 0 0 0 .098-3.677c-.018-1.331-.192-2.66.008-4.006.111-.77-.029-1.583-.064-2.38-.032-.687-.045-1.375-.105-2.056-.13-1.398-.3-2.794-.435-4.192-.032-.355.011-.72.025-1.075.005-.141.094-.333.033-.415-.349-.47-.182-.981-.12-1.461a5.4 5.4 0 0 0-.047-1.622 9.945 9.945 0 0 1-.157-2.265c.026-.425-.082-.856-.17-1.282-.07-.35-.2-.687-.33-1.113m46.315 30.511c.075-.54-.123-.971-.182-1.408-.075-.563-.002-.982.398-1.37.076-.07.108-.185.151-.252 1.206-.435 2.424-.2 3.668-.146.197-.64.39-1.273.587-1.905a.658.658 0 0 0-.167-.698c-.35-.35-.35-.71-.24-1.19.131-.535.091-1.125.071-1.692-.022-.556.098-1.13-.153-1.67.126-.77-.022-1.576.308-2.384a85.634 85.634 0 0 1-.375-.323c-.005-.066-.03-.148-.009-.202.207-.48.338-.933.033-1.44-.13-.224-.205-.536-.033-.836.08-.136.051-.349.041-.523-.06-.9-.186-1.79-.03-2.695.04-.24-.007-.514-.079-.748-.102-.34-.088-.622.072-.938.143-.307.154-.64-.224-.841-.022-.005-.072-1.027-.07-1.098.007-.213.061-.441-.002-.627-.262-.754-.092-1.513-.03-2.254.016-.25.054-.484.026-.736a20.01 20.01 0 0 1-.138-1.627 1.93 1.93 0 0 1 .128-.72c.412-1.096.043-2.024-.566-2.942-.839.06-1.663-.066-2.484.11-.526.108-1.019-.115-1.459-.333a.892.892 0 0 1-.47-.905c.047-.361.074-.716.112-1.12.687-.186 1.326-.524 2.082-.219.248.098.571.016.862-.005.435-.032.88-.07 1.278.143a.724.724 0 0 0 .711-.029c.49-.288 1.044-.212 1.555-.342.07-.022.141.01.21.006.334-.044.544.397.908.232.318-.147.626-.07.951-.026.228.026.493-.07.712-.18.26-.125.476-.153.684.077.123.13.245.08.387.026.623-.234 1.292.152 1.911-.13.301.114.602.233.976.375-.234.651.287 1.414-.466 2.036-.726.088-1.539.191-2.352.274a.849.849 0 0 0-.637.354 2.753 2.753 0 0 0-.553 1.604c-.024.94-.024 1.878-.047 2.817-.009.354-.158.742-.059 1.059.196.654.08 1.325.188 1.991.104.623-.093 1.298-.016 1.932.207 1.838-.155 3.672.021 5.506-.173.863.063 1.713.05 2.57-.015 1.342-.004 2.674-.178 4.011-.097.736.04 1.502.104 2.248.058.688.201 1.365.237 2.047.025.47.123.847.5 1.146.136.104.224.279.334.432 1.385.409 2.83.328 4.266.474.306.621.211 1.233.167 1.84-.019.279-.23.452-.483.535-.309.093-.632.146-.97.228-.18.638-.957.513-1.292 1.102l-.413-.617c-.016-.005-.084-.053-.149-.053-.889.087-1.779.19-2.669.25-.194.017-.402-.125-.6-.206-.369-.144-.726-.378-1.106-.41-.346-.027-.704.077-1.052-.081-.075-.034-.208.032-.304.07a1.642 1.642 0 0 1-1.172.043c-.41-.136-.82-.049-1.163.093-.593.245-1.166.339-1.79.218-.134-.022-.284.038-.507.072"/></svg>