<svg xmlns="http://www.w3.org/2000/svg" viewBox="0 0 572.9 122.3"><path d="M83 12.7v12.5h-9v20h9v12.3c0 20.4 2.9 30 11.1 37 5.4 4.6 11.6 6.7 20.1 6.7h6.8v-20h-2.9c-4.9 0-9.1-2.1-10.9-5.4-1.3-2.4-1.7-6.3-2-16.8l-.4-13.7 7.9-.3 7.8-.3.3-9.8.3-9.7H105V.2H83v12.5zm218 38v50.5h22V.2h-22v50.5zM503.5 2.2c-6.2 4.1-6.5 5.6-6.5 36.1 0 27 0 27.7 2.3 31 3.6 5.5 7.6 6.9 19.5 6.9H529v-15h-17v-46h17V.2h-11.2c-9.6 0-11.8.3-14.3 2zM541 7.6v7.6h16v46h-16v15h10c11.7 0 15.6-1.3 19.1-6.1 2.4-3.4 2.4-3.8 2.7-29.9.2-16.6 0-27.8-.7-30-.6-2-2.4-4.9-4.1-6.5-3.1-2.9-3.4-3-15.1-3.3L541 0v7.6zM23.7 19.2C14 21.7 5.3 29 2.6 36.9c-3.9 11.5.5 21.4 11.9 26.7 2.9 1.4 11.3 3.7 18.6 5.2C47.9 71.7 51 73 51 76.7c0 3.6-5 5.9-13 5.9-7.4 0-11.8-1.9-15.2-6.4-2.2-3-2.2-3-12.5-3H0v3.2C.1 83.5 6.5 93 14.5 97.6c10.4 6.2 27.4 7.2 40 2.5 7.4-2.8 15.5-10.5 17.3-16.5 2.6-9 .6-19-4.9-24.1-4.3-3.9-13.1-7.1-26.8-9.7C26.2 47.1 24 46.2 24 43c0-4.6 14.6-6.6 20.8-2.8 1.7 1.1 3.2 2.4 3.2 3s4.4 1 11.5 1c13.3 0 13.3 0 8.9-8.8-3.1-6.2-7.9-10.6-15.3-14-4.5-2.1-7.4-2.6-15.6-2.8-5.5-.2-11.7.1-13.8.6zm127.3.6c-11.2 3-19.8 10.6-25.2 22.1-4.3 9.1-5.1 22.7-1.9 33.1 3.9 12.8 13.9 23.2 25.7 26.8 10 3 22.4 1.1 30.2-4.6l4.2-3v7h21v-81h-22v7l-4.3-3.1c-4.6-3.2-13.2-5.9-18.7-5.8-1.9 0-6 .7-9 1.5zm21.9 22.7c10.2 6.8 12.7 23.3 4.8 32.3-9.5 10.9-24.4 9.6-31.1-2.6-2.5-4.6-2.8-6-2.4-12.5.3-6.2.8-8.1 3.3-11.7 6.1-8.8 16.9-11.1 25.4-5.5zm74.6-23c-5.2 1.8-8.5 3.5-11.2 6l-2.3 2v-7.3h-21v102.1l10.8-.3 10.7-.3.3-13.2.3-13.2 3.6 2.5c5.7 3.9 13.6 5.7 21.4 5.1 17.7-1.5 31.9-15.8 35-35.5 3-18.6-6.4-37.8-22.3-45.6-6.8-3.3-18.8-4.4-25.3-2.3zm13.8 21c5 2.1 10.2 8.7 11.6 14.5 4.3 17.6-12 32.8-26.9 25.2-7.5-3.8-11.5-12.1-10.8-22.1 1-13.4 14.4-22.4 26.1-17.6zm95.5-20.4c-7.3 2.4-11.3 4.9-16.9 10.8-9.3 9.7-12.3 18-11.7 32.1.5 12.9 3.9 20.3 13.2 29 7.6 7.1 14.8 10.2 25.2 10.9 17 1.2 31.6-6.3 38.3-19.9 1.7-3.4 3.1-6.7 3.1-7.5 0-1-2.5-1.3-11-1.3h-11l-3.9 3.9c-8.8 8.8-24.3 6.2-30.3-4.9l-1.8-3.5 30-.3 30-.2v-7.3c0-18.5-8.8-33.6-23.7-40.4-7.7-3.5-21.2-4.2-29.5-1.4zm19.9 19.2c3.5 1.3 8 5.5 9.9 9.1l1.5 2.8h-18.6c-10.2 0-18.5-.4-18.5-.9 0-2.1 4.9-7.8 8.5-9.8 4.4-2.5 12.3-3.1 17.2-1.2zm57.8-19.7c-10.1 3.2-15.9 7.9-19.4 15.6-2.7 6-2.7 12.5.2 18 4.2 8.4 12.1 12.5 29.7 15.5 12.9 2.2 15.9 3.3 17.2 6.1 1.6 3.4-1.2 6.1-7.7 7.3-7.3 1.4-14.1-.3-18.3-4.5l-3.4-3.4h-22l.6 3.2c2.6 12.9 14.1 22.5 30 25 24.4 3.8 45.5-10.6 43.4-29.6-1.5-13.3-10.6-19.3-34.7-23.2-12.5-2-16-3.9-14.1-7.5 3-5.6 19.5-4.8 23.2 1 1.2 1.9 2.2 2.1 12.6 2.1h11.4l-.7-3.3c-2.1-9.5-10.8-18.5-21.2-21.7-7.5-2.3-20.5-2.6-26.8-.6z"/></svg>